<?xml version="1.0" encoding="UTF-8" standalone="no"?>
<!DOCTYPE svg PUBLIC "-//W3C//DTD SVG 1.1//EN"
 "http://www.w3.org/Graphics/SVG/1.1/DTD/svg11.dtd">
<!-- Generated by graphviz version 2.28.0 (20110507.0327)
 -->
<!-- Title: G Pages: 1 -->
<svg width="524pt" height="240pt"
 viewBox="0.00 0.00 524.00 240.00" xmlns="http://www.w3.org/2000/svg" xmlns:xlink="http://www.w3.org/1999/xlink">
<g id="graph1" class="graph" transform="scale(1 1) rotate(0) translate(4 236)">
<title>G</title>
<polygon fill="white" stroke="white" points="-4,5 -4,-236 521,-236 521,5 -4,5"/>
<g id="graph2" class="cluster"><title>cluster_Global</title>
<polyline fill="none" stroke="gray" points="139,-44 496,-44 "/>
<path fill="none" stroke="gray" d="M496,-44C502,-44 508,-50 508,-56"/>
<polyline fill="none" stroke="gray" points="508,-56 508,-212 "/>
<path fill="none" stroke="gray" d="M508,-212C508,-218 502,-224 496,-224"/>
<polyline fill="none" stroke="gray" points="496,-224 139,-224 "/>
<path fill="none" stroke="gray" d="M139,-224C133,-224 127,-218 127,-212"/>
<polyline fill="none" stroke="gray" points="127,-212 127,-56 "/>
<path fill="none" stroke="gray" d="M127,-56C127,-50 133,-44 139,-44"/>
<text text-anchor="middle" x="317.5" y="-211.2" font-family="Times New Roman,serif" font-size="11.00" fill="gray">Global</text>
</g>
<!-- \\adb -->
<g id="node2" class="node"><title>\\adb</title>
<polygon fill="none" stroke="black" points="189,-196 135,-196 135,-160 189,-160 189,-196"/>
<text text-anchor="middle" x="162" y="-175.2" font-family="Courier,monospace" font-size="11.00">adb</text>
</g>
<!-- \\testAdb -->
<g id="node3" class="node"><title>\\testAdb</title>
<polygon fill="none" stroke="black" points="480,-142 416,-142 416,-106 480,-106 480,-142"/>
<text text-anchor="middle" x="448" y="-121.2" font-family="Courier,monospace" font-size="11.00">testAdb</text>
</g>
<!-- \\PHPUnit_Framework_TestCase -->
<g id="node7" class="node"><title>\\PHPUnit_Framework_TestCase</title>
<ellipse fill="none" stroke="black" cx="162" cy="-18" rx="161.671" ry="18"/>
<text text-anchor="middle" x="162" y="-14.3" font-family="Times New Roman,serif" font-size="14.00" fill="gray">\PHPUnit_Framework_TestCase</text>
</g>
<!-- \\testAdb&#45;&gt;\\PHPUnit_Framework_TestCase -->
<g id="edge3" class="edge"><title>\\testAdb&#45;&gt;\\PHPUnit_Framework_TestCase</title>
<path fill="none" stroke="black" d="M415.734,-108.608C409.089,-105.018 402.208,-101.052 396,-97 361.822,-74.6921 361.549,-55.996 324,-40 316.527,-36.8165 308.698,-34.0708 300.689,-31.7047"/>
<polygon fill="none" stroke="black" points="301.41,-28.2733 290.84,-29.0029 299.558,-35.0239 301.41,-28.2733"/>
</g>
<!-- \\testUserFiles -->
<g id="node4" class="node"><title>\\testUserFiles</title>
<polygon fill="none" stroke="black" points="500,-88 396,-88 396,-52 500,-52 500,-88"/>
<text text-anchor="middle" x="448" y="-67.2" font-family="Courier,monospace" font-size="11.00">testUserFiles</text>
</g>
<!-- \\testUserFiles&#45;&gt;\\PHPUnit_Framework_TestCase -->
<g id="edge5" class="edge"><title>\\testUserFiles&#45;&gt;\\PHPUnit_Framework_TestCase</title>
<path fill="none" stroke="black" d="M395.792,-56.2549C373.804,-50.6801 347.754,-44.5073 324,-40 310.263,-37.3934 295.81,-34.9715 281.434,-32.7605"/>
<polygon fill="none" stroke="black" points="281.913,-29.2933 271.503,-31.2638 280.87,-36.2151 281.913,-29.2933"/>
</g>
<!-- \\userFiles -->
<g id="node5" class="node"><title>\\userFiles</title>
<polygon fill="none" stroke="black" points="486.5,-196 409.5,-196 409.5,-160 486.5,-160 486.5,-196"/>
<text text-anchor="middle" x="448" y="-175.2" font-family="Courier,monospace" font-size="11.00">userFiles</text>
</g>
<!-- \\userFiles&#45;&gt;\\adb -->
<g id="edge7" class="edge"><title>\\userFiles&#45;&gt;\\adb</title>
<path fill="none" stroke="black" d="M409.287,-178C354.402,-178 253.193,-178 199.184,-178"/>
<polygon fill="none" stroke="black" points="199.039,-174.5 189.039,-178 199.039,-181.5 199.039,-174.5"/>
</g>
</g>
</svg>
