<?xml version="1.0" encoding="UTF-8" standalone="no"?>
<!DOCTYPE svg PUBLIC "-//W3C//DTD SVG 1.1//EN"
 "http://www.w3.org/Graphics/SVG/1.1/DTD/svg11.dtd">
<!-- Generated by graphviz version 2.28.0 (20110507.0327)
 -->
<!-- Title: G Pages: 1 -->
<svg width="532pt" height="294pt"
 viewBox="0.00 0.00 532.00 294.00" xmlns="http://www.w3.org/2000/svg" xmlns:xlink="http://www.w3.org/1999/xlink">
<g id="graph1" class="graph" transform="scale(1 1) rotate(0) translate(4 290)">
<title>G</title>
<polygon fill="white" stroke="white" points="-4,5 -4,-290 529,-290 529,5 -4,5"/>
<g id="graph2" class="cluster"><title>cluster_Global</title>
<polyline fill="none" stroke="gray" points="139,-44 504,-44 "/>
<path fill="none" stroke="gray" d="M504,-44C510,-44 516,-50 516,-56"/>
<polyline fill="none" stroke="gray" points="516,-56 516,-266 "/>
<path fill="none" stroke="gray" d="M516,-266C516,-272 510,-278 504,-278"/>
<polyline fill="none" stroke="gray" points="504,-278 139,-278 "/>
<path fill="none" stroke="gray" d="M139,-278C133,-278 127,-272 127,-266"/>
<polyline fill="none" stroke="gray" points="127,-266 127,-56 "/>
<path fill="none" stroke="gray" d="M127,-56C127,-50 133,-44 139,-44"/>
<text text-anchor="middle" x="321.5" y="-265.2" font-family="Times New Roman,serif" font-size="11.00" fill="gray">Global</text>
</g>
<!-- \\adb -->
<g id="node2" class="node"><title>\\adb</title>
<polygon fill="none" stroke="black" points="189,-250 135,-250 135,-214 189,-214 189,-250"/>
<text text-anchor="middle" x="162" y="-229.2" font-family="Courier,monospace" font-size="11.00">adb</text>
</g>
<!-- \\testAdb -->
<g id="node3" class="node"><title>\\testAdb</title>
<polygon fill="none" stroke="black" points="484,-196 420,-196 420,-160 484,-160 484,-196"/>
<text text-anchor="middle" x="452" y="-175.2" font-family="Courier,monospace" font-size="11.00">testAdb</text>
</g>
<!-- \\PHPUnit_Framework_TestCase -->
<g id="node8" class="node"><title>\\PHPUnit_Framework_TestCase</title>
<ellipse fill="none" stroke="black" cx="162" cy="-18" rx="161.671" ry="18"/>
<text text-anchor="middle" x="162" y="-14.3" font-family="Times New Roman,serif" font-size="14.00" fill="gray">\PHPUnit_Framework_TestCase</text>
</g>
<!-- \\testAdb&#45;&gt;\\PHPUnit_Framework_TestCase -->
<g id="edge3" class="edge"><title>\\testAdb&#45;&gt;\\PHPUnit_Framework_TestCase</title>
<path fill="none" stroke="black" d="M419.788,-166.267C411.491,-162.229 402.922,-157.143 396,-151 352.02,-111.968 373.646,-71.5132 324,-40 318.965,-36.8038 313.663,-33.9855 308.174,-31.5044"/>
<polygon fill="none" stroke="black" points="309.351,-28.2044 298.771,-27.6401 306.69,-34.6789 309.351,-28.2044"/>
</g>
<!-- \\testDeleteFile -->
<g id="node4" class="node"><title>\\testDeleteFile</title>
<polygon fill="none" stroke="black" points="507.5,-142 396.5,-142 396.5,-106 507.5,-106 507.5,-142"/>
<text text-anchor="middle" x="452" y="-121.2" font-family="Courier,monospace" font-size="11.00">testDeleteFile</text>
</g>
<!-- \\testDeleteFile&#45;&gt;\\PHPUnit_Framework_TestCase -->
<g id="edge5" class="edge"><title>\\testDeleteFile&#45;&gt;\\PHPUnit_Framework_TestCase</title>
<path fill="none" stroke="black" d="M411.675,-105.978C406.308,-103.15 400.947,-100.122 396,-97 361.485,-75.2168 361.549,-55.996 324,-40 316.527,-36.8165 308.698,-34.0708 300.689,-31.7047"/>
<polygon fill="none" stroke="black" points="301.41,-28.2733 290.84,-29.0029 299.558,-35.0239 301.41,-28.2733"/>
</g>
<!-- \\testUserFiles -->
<g id="node5" class="node"><title>\\testUserFiles</title>
<polygon fill="none" stroke="black" points="504,-88 400,-88 400,-52 504,-52 504,-88"/>
<text text-anchor="middle" x="452" y="-67.2" font-family="Courier,monospace" font-size="11.00">testUserFiles</text>
</g>
<!-- \\testUserFiles&#45;&gt;\\PHPUnit_Framework_TestCase -->
<g id="edge7" class="edge"><title>\\testUserFiles&#45;&gt;\\PHPUnit_Framework_TestCase</title>
<path fill="none" stroke="black" d="M399.949,-56.7573C376.863,-51.0749 349.169,-44.6811 324,-40 310.141,-37.4224 295.558,-35.0128 281.062,-32.8039"/>
<polygon fill="none" stroke="black" points="281.458,-29.3243 271.05,-31.3072 280.423,-36.2474 281.458,-29.3243"/>
</g>
<!-- \\userFiles -->
<g id="node6" class="node"><title>\\userFiles</title>
<polygon fill="none" stroke="black" points="490.5,-250 413.5,-250 413.5,-214 490.5,-214 490.5,-250"/>
<text text-anchor="middle" x="452" y="-229.2" font-family="Courier,monospace" font-size="11.00">userFiles</text>
</g>
<!-- \\userFiles&#45;&gt;\\adb -->
<g id="edge9" class="edge"><title>\\userFiles&#45;&gt;\\adb</title>
<path fill="none" stroke="black" d="M413.349,-232C357.744,-232 254.339,-232 199.439,-232"/>
<polygon fill="none" stroke="black" points="199.134,-228.5 189.134,-232 199.134,-235.5 199.134,-228.5"/>
</g>
</g>
</svg>
